<?xml version="1.0" encoding="UTF-8" standalone="no"?>
<svg
   viewBox="0 0 16 16"
   version="1.1"
   id="svg241"
   sodipodi:docname="JIRA icon priority high.svg"
   inkscape:version="1.2.2 (b0a8486541, 2022-12-01)"
   xmlns:inkscape="http://www.inkscape.org/namespaces/inkscape"
   xmlns:sodipodi="http://sodipodi.sourceforge.net/DTD/sodipodi-0.dtd"
   xmlns="http://www.w3.org/2000/svg"
   xmlns:svg="http://www.w3.org/2000/svg">
  <defs
     id="defs245" />
  <sodipodi:namedview
     id="namedview243"
     pagecolor="#ffffff"
     bordercolor="#000000"
     borderopacity="0.25"
     inkscape:showpageshadow="2"
     inkscape:pageopacity="0.0"
     inkscape:pagecheckerboard="0"
     inkscape:deskcolor="#d1d1d1"
     showgrid="false"
     inkscape:zoom="64.1875"
     inkscape:cx="7.9922103"
     inkscape:cy="8"
     inkscape:window-width="2560"
     inkscape:window-height="1368"
     inkscape:window-x="0"
     inkscape:window-y="0"
     inkscape:window-maximized="1"
     inkscape:current-layer="svg241" />
  <path
     d="M7.984436 3.200867l-4.5 2.7c-.5.3-1.1.1-1.3-.4s-.2-1.1.3-1.3l5-3c.3-.2.7-.2 1 0l5 3c.5.3.6.9.3 1.4-.3.5-.9.6-1.4.3l-4.4-2.7z"
     fill="#ff5630"
     id="path235"
     style="fill:none" />
  <path
     d="M3.484436 10.200867c-.5.3-1.1.1-1.3-.3s-.2-1.1.3-1.4l5-3c.3-.2.7-.2 1 0l5 3c.5.3.6.9.3 1.4-.3.5-.9.6-1.4.3l-4.4-2.7-4.5 2.7z"
     fill="#ff7452"
     id="path237" />
  <path
     d="M3.484436 14.500867c-.5.3-1.1.2-1.3-.3s-.2-1.1.3-1.4l5-3c.3-.2.7-.2 1 0l5 3c.5.3.6.9.3 1.4-.3.5-.9.6-1.4.3l-4.4-2.7-4.5 2.7z"
     fill="#ff8f73"
     id="path239"
     style="fill:none" />
</svg>
