<?xml version="1.0" encoding="UTF-8" standalone="no"?>
<svg
   viewBox="0 0 16 16"
   version="1.1"
   id="svg331"
   sodipodi:docname="JIRA icon priority low.svg"
   inkscape:version="1.2.2 (b0a8486541, 2022-12-01)"
   xmlns:inkscape="http://www.inkscape.org/namespaces/inkscape"
   xmlns:sodipodi="http://sodipodi.sourceforge.net/DTD/sodipodi-0.dtd"
   xmlns="http://www.w3.org/2000/svg"
   xmlns:svg="http://www.w3.org/2000/svg">
  <defs
     id="defs335" />
  <sodipodi:namedview
     id="namedview333"
     pagecolor="#ffffff"
     bordercolor="#000000"
     borderopacity="0.25"
     inkscape:showpageshadow="2"
     inkscape:pageopacity="0.0"
     inkscape:pagecheckerboard="0"
     inkscape:deskcolor="#d1d1d1"
     showgrid="false"
     inkscape:zoom="64.1875"
     inkscape:cx="7.9922103"
     inkscape:cy="8"
     inkscape:window-width="2560"
     inkscape:window-height="1368"
     inkscape:window-x="0"
     inkscape:window-y="0"
     inkscape:window-maximized="1"
     inkscape:current-layer="svg331" />
  <path
     d="M8.045319 12.806152l4.5-2.7c.5-.3 1.1-.1 1.3.4s.2 1.1-.3 1.3l-5 3c-.3.2-.7.2-1 0l-5-3c-.5-.3-.6-.9-.3-1.4.3-.5.9-.6 1.4-.3l4.4 2.7z"
     fill="#0065ff"
     id="path325"
     style="fill:none" />
  <path
     d="M12.545319 5.806152c.5-.3 1.1-.1 1.3.3s.2 1.1-.3 1.4l-5 3c-.3.2-.7.2-1 0l-5-3c-.5-.3-.6-.9-.3-1.4.3-.5.9-.6 1.4-.3l4.4 2.7 4.5-2.7z"
     fill="#2684ff"
     id="path327" />
  <path
     d="M12.545319 1.506152c.5-.3 1.1-.2 1.3.3s.2 1.1-.3 1.4l-5 3c-.3.2-.7.2-1 0l-5-3c-.5-.3-.6-.9-.3-1.4.3-.5.9-.6 1.4-.3l4.4 2.7 4.5-2.7z"
     fill="#4c9aff"
     id="path329"
     style="fill:none" />
</svg>
